<mxfile host="app.diagrams.net" agent="Mozilla/5.0 (Windows NT 10.0; Win64; x64) AppleWebKit/537.36 (KHTML, like Gecko) Chrome/129.0.0.0 Safari/537.36" version="24.7.17">
  <diagram name="Page-1" id="5f0bae14-7c28-e335-631c-24af17079c00">
    <mxGraphModel dx="1687" dy="878" grid="1" gridSize="10" guides="1" tooltips="1" connect="1" arrows="1" fold="1" page="1" pageScale="1" pageWidth="1100" pageHeight="850" background="none" math="0" shadow="0">
      <root>
        <mxCell id="0" />
        <mxCell id="1" parent="0" />
        <mxCell id="dprkCFbUmUXwXdYqhsrh-31" style="edgeStyle=orthogonalEdgeStyle;rounded=0;orthogonalLoop=1;jettySize=auto;html=1;entryDx=55;entryDy=100;entryPerimeter=0;noEdgeStyle=1;" edge="1" parent="1" source="39150e848f15840c-1" target="dprkCFbUmUXwXdYqhsrh-18">
          <mxGeometry relative="1" as="geometry" />
        </mxCell>
        <mxCell id="dprkCFbUmUXwXdYqhsrh-44" style="edgeStyle=orthogonalEdgeStyle;rounded=0;orthogonalLoop=1;jettySize=auto;html=1;" edge="1" parent="1" source="39150e848f15840c-1" target="dprkCFbUmUXwXdYqhsrh-12">
          <mxGeometry relative="1" as="geometry" />
        </mxCell>
        <mxCell id="39150e848f15840c-1" value="MagridMVC Server" style="verticalAlign=top;align=left;spacingTop=8;spacingLeft=2;spacingRight=12;shape=cube;size=10;direction=south;fontStyle=4;html=1;rounded=0;shadow=0;comic=0;labelBackgroundColor=none;strokeWidth=1;fontFamily=Verdana;fontSize=12" parent="1" vertex="1">
          <mxGeometry x="70" y="70" width="320" height="280" as="geometry" />
        </mxCell>
        <mxCell id="39150e848f15840c-5" value="&lt;font style=&quot;font-size: 7px;&quot;&gt;MagridMVC.Presentation&lt;/font&gt;" style="shape=component;align=left;spacingLeft=36;rounded=0;shadow=0;comic=0;labelBackgroundColor=none;strokeWidth=1;fontFamily=Verdana;fontSize=12;html=1;" parent="1" vertex="1">
          <mxGeometry x="113.26999999999998" y="130" width="140" height="70" as="geometry" />
        </mxCell>
        <mxCell id="39150e848f15840c-3" value="SendGrid&lt;div&gt;&lt;br&gt;&lt;/div&gt;" style="verticalAlign=top;align=left;spacingTop=8;spacingLeft=2;spacingRight=12;shape=cube;size=10;direction=south;fontStyle=4;html=1;rounded=0;shadow=0;comic=0;labelBackgroundColor=none;strokeWidth=1;fontFamily=Verdana;fontSize=12" parent="1" vertex="1">
          <mxGeometry x="747.5" y="20" width="100" height="100" as="geometry" />
        </mxCell>
        <mxCell id="dprkCFbUmUXwXdYqhsrh-12" value="&lt;div&gt;Mailchimp&lt;/div&gt;" style="verticalAlign=top;align=left;spacingTop=8;spacingLeft=2;spacingRight=12;shape=cube;size=10;direction=south;fontStyle=4;html=1;rounded=0;shadow=0;comic=0;labelBackgroundColor=none;strokeWidth=1;fontFamily=Verdana;fontSize=12" vertex="1" parent="1">
          <mxGeometry x="747.5" y="160" width="100" height="100" as="geometry" />
        </mxCell>
        <mxCell id="dprkCFbUmUXwXdYqhsrh-13" value="&lt;div&gt;SENTRY&lt;/div&gt;" style="verticalAlign=top;align=left;spacingTop=8;spacingLeft=2;spacingRight=12;shape=cube;size=10;direction=south;fontStyle=4;html=1;rounded=0;shadow=0;comic=0;labelBackgroundColor=none;strokeWidth=1;fontFamily=Verdana;fontSize=12" vertex="1" parent="1">
          <mxGeometry x="747.5" y="300" width="100" height="120" as="geometry" />
        </mxCell>
        <mxCell id="dprkCFbUmUXwXdYqhsrh-14" value="&lt;div&gt;Stripe&lt;/div&gt;" style="verticalAlign=top;align=left;spacingTop=8;spacingLeft=2;spacingRight=12;shape=cube;size=10;direction=south;fontStyle=4;html=1;rounded=0;shadow=0;comic=0;labelBackgroundColor=none;strokeWidth=1;fontFamily=Verdana;fontSize=12" vertex="1" parent="1">
          <mxGeometry x="747.5" y="460" width="100" height="100" as="geometry" />
        </mxCell>
        <mxCell id="dprkCFbUmUXwXdYqhsrh-15" value="&lt;div&gt;google.pubsub&lt;/div&gt;" style="verticalAlign=top;align=left;spacingTop=8;spacingLeft=2;spacingRight=12;shape=cube;size=10;direction=south;fontStyle=4;html=1;rounded=0;shadow=0;comic=0;labelBackgroundColor=none;strokeWidth=1;fontFamily=Verdana;fontSize=12" vertex="1" parent="1">
          <mxGeometry x="747.5" y="600" width="100" height="100" as="geometry" />
        </mxCell>
        <mxCell id="dprkCFbUmUXwXdYqhsrh-16" value="&lt;div&gt;MaxMind.GeoIP&lt;/div&gt;" style="verticalAlign=top;align=left;spacingTop=8;spacingLeft=2;spacingRight=12;shape=cube;size=10;direction=south;fontStyle=4;html=1;rounded=0;shadow=0;comic=0;labelBackgroundColor=none;strokeWidth=1;fontFamily=Verdana;fontSize=12;flipH=0;flipV=0;" vertex="1" parent="1">
          <mxGeometry x="747.5" y="740" width="115" height="110" as="geometry" />
        </mxCell>
        <mxCell id="dprkCFbUmUXwXdYqhsrh-18" value="&lt;div&gt;&lt;font style=&quot;font-size: 10px;&quot;&gt;Databse Server&lt;/font&gt;&lt;/div&gt;" style="verticalAlign=top;align=left;spacingTop=8;spacingLeft=2;spacingRight=12;shape=cube;size=10;direction=south;fontStyle=4;html=1;rounded=0;shadow=0;comic=0;labelBackgroundColor=none;strokeWidth=1;fontFamily=Verdana;fontSize=12" vertex="1" parent="1">
          <mxGeometry x="570" y="740" width="100" height="100" as="geometry" />
        </mxCell>
        <mxCell id="dprkCFbUmUXwXdYqhsrh-23" value="&lt;span style=&quot;font-family: Verdana; text-align: left; text-wrap: nowrap;&quot;&gt;&lt;font style=&quot;font-size: 9px;&quot;&gt;MagridMVC.Jobs&lt;/font&gt;&lt;/span&gt;" style="shape=module;align=left;spacingLeft=20;align=center;verticalAlign=top;whiteSpace=wrap;html=1;" vertex="1" parent="1">
          <mxGeometry x="110" y="245.07999999999998" width="150" height="75" as="geometry" />
        </mxCell>
        <mxCell id="dprkCFbUmUXwXdYqhsrh-33" style="edgeStyle=orthogonalEdgeStyle;rounded=0;orthogonalLoop=1;jettySize=auto;html=1;entryDx=65;entryDy=100;entryPerimeter=0;noEdgeStyle=1;" edge="1" parent="1" source="39150e848f15840c-1" target="dprkCFbUmUXwXdYqhsrh-13">
          <mxGeometry relative="1" as="geometry" />
        </mxCell>
        <mxCell id="dprkCFbUmUXwXdYqhsrh-35" style="edgeStyle=orthogonalEdgeStyle;rounded=0;orthogonalLoop=1;jettySize=auto;html=1;entryDx=0;entryDy=0;entryPerimeter=0;noEdgeStyle=1;" edge="1" parent="1" source="39150e848f15840c-1" target="39150e848f15840c-3">
          <mxGeometry relative="1" as="geometry" />
        </mxCell>
        <mxCell id="dprkCFbUmUXwXdYqhsrh-38" style="edgeStyle=orthogonalEdgeStyle;rounded=0;orthogonalLoop=1;jettySize=auto;html=1;entryDx=0;entryDy=0;entryPerimeter=0;noEdgeStyle=1;" edge="1" parent="1" source="39150e848f15840c-1" target="dprkCFbUmUXwXdYqhsrh-16">
          <mxGeometry relative="1" as="geometry" />
        </mxCell>
        <mxCell id="dprkCFbUmUXwXdYqhsrh-41" style="edgeStyle=orthogonalEdgeStyle;rounded=0;orthogonalLoop=1;jettySize=auto;html=1;entryDx=55;entryDy=100;entryPerimeter=0;noEdgeStyle=1;" edge="1" parent="1" source="39150e848f15840c-1" target="dprkCFbUmUXwXdYqhsrh-15">
          <mxGeometry relative="1" as="geometry" />
        </mxCell>
        <mxCell id="dprkCFbUmUXwXdYqhsrh-42" style="edgeStyle=orthogonalEdgeStyle;rounded=0;orthogonalLoop=1;jettySize=auto;html=1;entryDx=55;entryDy=100;entryPerimeter=0;noEdgeStyle=1;" edge="1" parent="1" source="39150e848f15840c-1" target="dprkCFbUmUXwXdYqhsrh-14">
          <mxGeometry relative="1" as="geometry" />
        </mxCell>
      </root>
    </mxGraphModel>
  </diagram>
</mxfile>
